<?xml version="1.0" encoding="UTF-8" standalone="no"?>
<!DOCTYPE svg PUBLIC "-//W3C//DTD SVG 1.1//EN"
 "http://www.w3.org/Graphics/SVG/1.1/DTD/svg11.dtd">
<!-- Generated by graphviz version 2.40.1 (20161225.0304)
 -->
<!-- Title: G Pages: 1 -->
<svg width="1359pt" height="1338pt"
 viewBox="0.00 0.00 1359.01 1338.00" xmlns="http://www.w3.org/2000/svg" xmlns:xlink="http://www.w3.org/1999/xlink">
<g id="graph0" class="graph" transform="scale(1 1) rotate(0) translate(4 1334)">
<title>G</title>
<polygon fill="#ffffff" stroke="transparent" points="-4,4 -4,-1334 1355.011,-1334 1355.011,4 -4,4"/>
<!-- A0 -->
<g id="node1" class="node">
<title>A0</title>
<polygon fill="none" stroke="#000000" points="259.011,-434 259.011,-466 597.011,-466 597.011,-434 259.011,-434"/>
<text text-anchor="start" x="407.456" y="-447" font-family="Helvetica,sans-Serif" font-size="10.00" fill="#000000">trait&#45;vault</text>
<polygon fill="none" stroke="#000000" points="259.011,-150 259.011,-434 597.011,-434 597.011,-150 259.011,-150"/>
<text text-anchor="start" x="383.4145" y="-415" font-family="Helvetica,sans-Serif" font-size="10.00" fill="#000000">+(get&#45;balance(token</text>
<text text-anchor="start" x="399.9575" y="-403" font-family="Helvetica,sans-Serif" font-size="10.00" fill="#000000">trait&#45;sip&#45;010)</text>
<text text-anchor="start" x="396.337" y="-391" font-family="Helvetica,sans-Serif" font-size="10.00" fill="#000000">(response unit</text>
<text text-anchor="start" x="416.624" y="-379" font-family="Helvetica,sans-Serif" font-size="10.00" fill="#000000">uint))</text>
<text text-anchor="start" x="391.478" y="-355" font-family="Helvetica,sans-Serif" font-size="10.00" fill="#000000">+(get&#45;balances()</text>
<text text-anchor="start" x="384.1145" y="-343" font-family="Helvetica,sans-Serif" font-size="10.00" fill="#000000">(response (list 2000</text>
<text text-anchor="start" x="400.227" y="-331" font-family="Helvetica,sans-Serif" font-size="10.00" fill="#000000">(tuple (token</text>
<text text-anchor="start" x="399.9575" y="-319" font-family="Helvetica,sans-Serif" font-size="10.00" fill="#000000">trait&#45;sip&#45;010)</text>
<text text-anchor="start" x="394.3985" y="-307" font-family="Helvetica,sans-Serif" font-size="10.00" fill="#000000">(balance uint)))</text>
<text text-anchor="start" x="416.624" y="-295" font-family="Helvetica,sans-Serif" font-size="10.00" fill="#000000">uint))</text>
<text text-anchor="start" x="395.9315" y="-271" font-family="Helvetica,sans-Serif" font-size="10.00" fill="#000000">+(swap&#45;x&#45;for&#45;y</text>
<text text-anchor="start" x="409.954" y="-259" font-family="Helvetica,sans-Serif" font-size="10.00" fill="#000000">(token&#45;x</text>
<text text-anchor="start" x="399.9575" y="-247" font-family="Helvetica,sans-Serif" font-size="10.00" fill="#000000">trait&#45;sip&#45;010)</text>
<text text-anchor="start" x="409.954" y="-235" font-family="Helvetica,sans-Serif" font-size="10.00" fill="#000000">(token&#45;y</text>
<text text-anchor="start" x="391.624" y="-223" font-family="Helvetica,sans-Serif" font-size="10.00" fill="#000000">trait&#45;sip&#45;010) (dx</text>
<text text-anchor="start" x="385.225" y="-211" font-family="Helvetica,sans-Serif" font-size="10.00" fill="#000000">uint) (response uint</text>
<text text-anchor="start" x="416.624" y="-199" font-family="Helvetica,sans-Serif" font-size="10.00" fill="#000000">uint))</text>
<text text-anchor="start" x="400.367" y="-187" font-family="Helvetica,sans-Serif" font-size="10.00" fill="#000000"> +(flash&#45;loan</text>
<text text-anchor="start" x="405.5105" y="-175" font-family="Helvetica,sans-Serif" font-size="10.00" fill="#000000">(loan&#45;user</text>
<text text-anchor="start" x="268.843" y="-163" font-family="Helvetica,sans-Serif" font-size="10.00" fill="#000000">trait&#45;flash&#45;loan&#45;user) (list 3 trait&#45;sip&#45;010) (list 3 uint) (response bool uint))</text>
</g>
<!-- A6 -->
<g id="node7" class="node">
<title>A6</title>
<polygon fill="none" stroke="#000000" points="138.011,-68 138.011,-100 240.011,-100 240.011,-68 138.011,-68"/>
<text text-anchor="start" x="153.728" y="-81" font-family="Helvetica,sans-Serif" font-size="10.00" fill="#000000">yield&#45;token&#45;pool</text>
<polygon fill="none" stroke="#000000" points="138.011,0 138.011,-68 240.011,-68 240.011,0 138.011,0"/>
<text text-anchor="start" x="147.759" y="-49" font-family="Helvetica,sans-Serif" font-size="10.00" fill="#000000">+(get&#45;x&#45;given&#45;yield</text>
<text text-anchor="start" x="165.9565" y="-37" font-family="Helvetica,sans-Serif" font-size="10.00" fill="#000000">(yield uint)</text>
<text text-anchor="start" x="157.337" y="-25" font-family="Helvetica,sans-Serif" font-size="10.00" fill="#000000">(response uint</text>
<text text-anchor="start" x="177.624" y="-13" font-family="Helvetica,sans-Serif" font-size="10.00" fill="#000000">uint))</text>
</g>
<!-- A0&#45;&gt;A6 -->
<g id="edge19" class="edge">
<title>A0&#45;&gt;A6</title>
<path fill="none" stroke="#000000" d="M274.4911,-142.2756C260.4911,-127.1626 247.1707,-112.7833 235.3904,-100.0665"/>
<polygon fill="#000000" stroke="#000000" points="281.4146,-149.7495 271.3176,-145.4716 278.0167,-146.0815 274.6188,-142.4135 274.6188,-142.4135 274.6188,-142.4135 278.0167,-146.0815 277.9201,-139.3554 281.4146,-149.7495 281.4146,-149.7495"/>
</g>
<!-- A7 -->
<g id="node8" class="node">
<title>A7</title>
<polygon fill="none" stroke="#000000" points="977.7462,-68 832.2758,-68 832.2758,-32 977.7462,-32 977.7462,-68"/>
<text text-anchor="middle" x="905.011" y="-47" font-family="Helvetica,sans-Serif" font-size="10.00" fill="#000000">collateral&#45;rebalancing&#45;pool</text>
</g>
<!-- A0&#45;&gt;A7 -->
<g id="edge21" class="edge">
<title>A0&#45;&gt;A7</title>
<path fill="none" stroke="#000000" d="M605.7344,-150.1602C605.8266,-150.1067 605.9188,-150.0533 606.011,-150 646.5228,-126.57 766.3218,-89.8228 841.4097,-68.0034"/>
<polygon fill="#000000" stroke="#000000" points="597.1768,-155.2771 603.4501,-146.2829 601.4682,-152.7111 605.7595,-150.1451 605.7595,-150.1451 605.7595,-150.1451 601.4682,-152.7111 608.0689,-154.0073 597.1768,-155.2771 597.1768,-155.2771"/>
</g>
<!-- A8 -->
<g id="node9" class="node">
<title>A8</title>
<polygon fill="none" stroke="#000000" points="549.9757,-68 402.0463,-68 402.0463,-32 549.9757,-32 549.9757,-68"/>
<text text-anchor="middle" x="476.011" y="-47" font-family="Helvetica,sans-Serif" font-size="10.00" fill="#000000">liquidity&#45;bootstrapping&#45;pool</text>
</g>
<!-- A0&#45;&gt;A8 -->
<g id="edge22" class="edge">
<title>A0&#45;&gt;A8</title>
<path fill="none" stroke="#000000" d="M459.3041,-139.7997C464.7063,-110.7628 469.5638,-84.654 472.6304,-68.1709"/>
<polygon fill="#000000" stroke="#000000" points="457.4529,-149.7495 454.858,-139.0951 458.3675,-144.8339 459.2821,-139.9182 459.2821,-139.9182 459.2821,-139.9182 458.3675,-144.8339 463.7062,-140.7414 457.4529,-149.7495 457.4529,-149.7495"/>
</g>
<!-- A9 -->
<g id="node10" class="node">
<title>A9</title>
<polygon fill="none" stroke="#000000" points="719.5759,-68 616.4461,-68 616.4461,-32 719.5759,-32 719.5759,-68"/>
<text text-anchor="middle" x="668.011" y="-47" font-family="Helvetica,sans-Serif" font-size="10.00" fill="#000000">fixed&#45;weight&#45;pool</text>
</g>
<!-- A0&#45;&gt;A9 -->
<g id="edge20" class="edge">
<title>A0&#45;&gt;A9</title>
<path fill="none" stroke="#000000" d="M582.3571,-142.078C610.2142,-112.1316 635.3748,-85.0839 651.1078,-68.1709"/>
<polygon fill="#000000" stroke="#000000" points="575.2207,-149.7495 578.737,-139.3627 578.6263,-146.0886 582.0318,-142.4276 582.0318,-142.4276 582.0318,-142.4276 578.6263,-146.0886 585.3267,-145.4926 575.2207,-149.7495 575.2207,-149.7495"/>
</g>
<!-- A15 -->
<g id="node16" class="node">
<title>A15</title>
<polygon fill="#f5deb3" stroke="#000000" points="826.579,-326 739.443,-326 739.443,-290 832.579,-290 832.579,-320 826.579,-326"/>
<polyline fill="none" stroke="#000000" points="826.579,-326 826.579,-320 "/>
<polyline fill="none" stroke="#000000" points="832.579,-320 826.579,-320 "/>
<text text-anchor="middle" x="786.011" y="-311" font-family="Helvetica,sans-Serif" font-size="10.00" fill="#000000">Holds all token</text>
<text text-anchor="middle" x="786.011" y="-299" font-family="Helvetica,sans-Serif" font-size="10.00" fill="#000000">balances</text>
</g>
<!-- A0&#45;&gt;A15 -->
<g id="edge25" class="edge">
<title>A0&#45;&gt;A15</title>
<path fill="none" stroke="#000000" stroke-dasharray="5,2" d="M565.3046,-466.0429C615.1143,-504.5884 671.3298,-525.9172 721.011,-491 775.6275,-452.6141 784.6425,-364.1348 785.9239,-326.0129"/>
</g>
<!-- A1 -->
<g id="node2" class="node">
<title>A1</title>
<polygon fill="none" stroke="#000000" points="851.011,-434 851.011,-466 960.011,-466 960.011,-434 851.011,-434"/>
<text text-anchor="start" x="886.066" y="-447" font-family="Helvetica,sans-Serif" font-size="10.00" fill="#000000">trait&#45;pool</text>
<polygon fill="none" stroke="#000000" points="851.011,-150 851.011,-434 960.011,-434 960.011,-150 851.011,-150"/>
<text text-anchor="start" x="864.255" y="-415" font-family="Helvetica,sans-Serif" font-size="10.00" fill="#000000">+(get&#45;pool&#45;count ()</text>
<text text-anchor="start" x="873.837" y="-403" font-family="Helvetica,sans-Serif" font-size="10.00" fill="#000000">(response uint</text>
<text text-anchor="start" x="894.124" y="-391" font-family="Helvetica,sans-Serif" font-size="10.00" fill="#000000">uint))</text>
<text text-anchor="start" x="860.9195" y="-367" font-family="Helvetica,sans-Serif" font-size="10.00" fill="#000000">+(get&#45;pool&#45;contracts</text>
<text text-anchor="start" x="870.508" y="-355" font-family="Helvetica,sans-Serif" font-size="10.00" fill="#000000">(uint) (response</text>
<text text-anchor="start" x="873.5625" y="-343" font-family="Helvetica,sans-Serif" font-size="10.00" fill="#000000">(tuple (token&#45;x</text>
<text text-anchor="start" x="877.4575" y="-331" font-family="Helvetica,sans-Serif" font-size="10.00" fill="#000000">trait&#45;sip&#45;010)</text>
<text text-anchor="start" x="887.454" y="-319" font-family="Helvetica,sans-Serif" font-size="10.00" fill="#000000">(token&#45;y</text>
<text text-anchor="start" x="877.4575" y="-307" font-family="Helvetica,sans-Serif" font-size="10.00" fill="#000000">trait&#45;sip&#45;010)</text>
<text text-anchor="start" x="874.123" y="-295" font-family="Helvetica,sans-Serif" font-size="10.00" fill="#000000">(weight&#45;x uint)</text>
<text text-anchor="start" x="872.4585" y="-283" font-family="Helvetica,sans-Serif" font-size="10.00" fill="#000000">(weight&#45;y uint))</text>
<text text-anchor="start" x="894.124" y="-271" font-family="Helvetica,sans-Serif" font-size="10.00" fill="#000000">uint))</text>
<text text-anchor="start" x="878.9765" y="-259" font-family="Helvetica,sans-Serif" font-size="10.00" fill="#000000"> +(get&#45;pools</text>
<text text-anchor="start" x="869.4035" y="-247" font-family="Helvetica,sans-Serif" font-size="10.00" fill="#000000">() (response (list</text>
<text text-anchor="start" x="861.055" y="-235" font-family="Helvetica,sans-Serif" font-size="10.00" fill="#000000">2000 (tuple (token&#45;x</text>
<text text-anchor="start" x="877.4575" y="-223" font-family="Helvetica,sans-Serif" font-size="10.00" fill="#000000">trait&#45;sip&#45;010)</text>
<text text-anchor="start" x="887.454" y="-211" font-family="Helvetica,sans-Serif" font-size="10.00" fill="#000000">(token&#45;y</text>
<text text-anchor="start" x="877.4575" y="-199" font-family="Helvetica,sans-Serif" font-size="10.00" fill="#000000">trait&#45;sip&#45;010)</text>
<text text-anchor="start" x="874.123" y="-187" font-family="Helvetica,sans-Serif" font-size="10.00" fill="#000000">(weight&#45;x uint)</text>
<text text-anchor="start" x="870.794" y="-175" font-family="Helvetica,sans-Serif" font-size="10.00" fill="#000000">(weight&#45;y uint)))</text>
<text text-anchor="start" x="894.124" y="-163" font-family="Helvetica,sans-Serif" font-size="10.00" fill="#000000">uint))</text>
</g>
<!-- A1&#45;&gt;A7 -->
<g id="edge4" class="edge">
<title>A1&#45;&gt;A7</title>
<path fill="none" stroke="#000000" stroke-dasharray="5,2" d="M905.011,-139.4211C905.011,-110.536 905.011,-84.5823 905.011,-68.1709"/>
<polygon fill="none" stroke="#000000" points="901.5111,-139.7495 905.011,-149.7495 908.5111,-139.7496 901.5111,-139.7495"/>
</g>
<!-- A1&#45;&gt;A8 -->
<g id="edge5" class="edge">
<title>A1&#45;&gt;A8</title>
<path fill="none" stroke="#000000" stroke-dasharray="5,2" d="M843.1053,-150.9353C842.7426,-150.6211 842.3779,-150.3093 842.011,-150 760.3745,-81.1672 709.4218,-130.2405 607.011,-100 576.7769,-91.0723 543.6092,-78.3822 518.2125,-68.0208"/>
<polygon fill="none" stroke="#000000" points="840.7515,-153.5268 850.4152,-157.87 845.5693,-148.4484 840.7515,-153.5268"/>
</g>
<!-- A1&#45;&gt;A9 -->
<g id="edge3" class="edge">
<title>A1&#45;&gt;A9</title>
<path fill="none" stroke="#000000" stroke-dasharray="5,2" d="M844.1642,-152.5378C843.4542,-151.6828 842.7364,-150.8367 842.011,-150 808.5733,-111.4341 756.4232,-84.2592 717.928,-68.0679"/>
<polygon fill="none" stroke="#000000" points="841.4375,-154.7328 850.3496,-160.4621 846.9555,-150.4256 841.4375,-154.7328"/>
</g>
<!-- A13 -->
<g id="node14" class="node">
<title>A13</title>
<polygon fill="#f5deb3" stroke="#000000" points="1223.1934,-330 1104.8286,-330 1104.8286,-286 1229.1934,-286 1229.1934,-324 1223.1934,-330"/>
<polyline fill="none" stroke="#000000" points="1223.1934,-330 1223.1934,-324 "/>
<polyline fill="none" stroke="#000000" points="1229.1934,-324 1223.1934,-324 "/>
<text text-anchor="middle" x="1167.011" y="-317" font-family="Helvetica,sans-Serif" font-size="10.00" fill="#000000">Interface</text>
<text text-anchor="middle" x="1167.011" y="-305" font-family="Helvetica,sans-Serif" font-size="10.00" fill="#000000">abstracting AMM pool</text>
<text text-anchor="middle" x="1167.011" y="-293" font-family="Helvetica,sans-Serif" font-size="10.00" fill="#000000">logic</text>
</g>
<!-- A1&#45;&gt;A13 -->
<g id="edge23" class="edge">
<title>A1&#45;&gt;A13</title>
<path fill="none" stroke="#000000" stroke-dasharray="5,2" d="M950.9468,-466.2324C958.3705,-475.7267 966.9939,-484.1767 977.011,-491 1017.4165,-518.5231 1046.0995,-517.7651 1087.011,-491 1142.5769,-454.6477 1159.7769,-370.2798 1164.9168,-330.0739"/>
</g>
<!-- A2 -->
<g id="node3" class="node">
<title>A2</title>
<polygon fill="none" stroke="#000000" points="341.011,-872 341.011,-904 1093.011,-904 1093.011,-872 341.011,-872"/>
<text text-anchor="start" x="687.838" y="-885" font-family="Helvetica,sans-Serif" font-size="10.00" fill="#000000">trait&#45;equation</text>
<polygon fill="none" stroke="#000000" points="341.011,-516 341.011,-872 1093.011,-872 1093.011,-516 341.011,-516"/>
<text text-anchor="start" x="683.537" y="-853" font-family="Helvetica,sans-Serif" font-size="10.00" fill="#000000">+(get&#45;y&#45;given&#45;x</text>
<text text-anchor="start" x="682.563" y="-841" font-family="Helvetica,sans-Serif" font-size="10.00" fill="#000000">(balance&#45;x uint)</text>
<text text-anchor="start" x="682.563" y="-829" font-family="Helvetica,sans-Serif" font-size="10.00" fill="#000000">(balance&#45;y uint)</text>
<text text-anchor="start" x="685.623" y="-817" font-family="Helvetica,sans-Serif" font-size="10.00" fill="#000000">(weight&#45;x uint)</text>
<text text-anchor="start" x="677.2895" y="-805" font-family="Helvetica,sans-Serif" font-size="10.00" fill="#000000">(weight&#45;y uint) (dx</text>
<text text-anchor="start" x="674.225" y="-793" font-family="Helvetica,sans-Serif" font-size="10.00" fill="#000000">uint) (response uint</text>
<text text-anchor="start" x="705.624" y="-781" font-family="Helvetica,sans-Serif" font-size="10.00" fill="#000000">uint))</text>
<text text-anchor="start" x="683.537" y="-757" font-family="Helvetica,sans-Serif" font-size="10.00" fill="#000000">+(get&#45;x&#45;given&#45;y</text>
<text text-anchor="start" x="682.563" y="-745" font-family="Helvetica,sans-Serif" font-size="10.00" fill="#000000">(balance&#45;x uint)</text>
<text text-anchor="start" x="682.563" y="-733" font-family="Helvetica,sans-Serif" font-size="10.00" fill="#000000">(balance&#45;y uint)</text>
<text text-anchor="start" x="685.623" y="-721" font-family="Helvetica,sans-Serif" font-size="10.00" fill="#000000">(weight&#45;x uint)</text>
<text text-anchor="start" x="677.2895" y="-709" font-family="Helvetica,sans-Serif" font-size="10.00" fill="#000000">(weight&#45;y uint) (dy</text>
<text text-anchor="start" x="674.225" y="-697" font-family="Helvetica,sans-Serif" font-size="10.00" fill="#000000">uint) (response uint</text>
<text text-anchor="start" x="703.9595" y="-685" font-family="Helvetica,sans-Serif" font-size="10.00" fill="#000000">uint)))</text>
<text text-anchor="start" x="675.204" y="-661" font-family="Helvetica,sans-Serif" font-size="10.00" fill="#000000">+(get&#45;x&#45;given&#45;price</text>
<text text-anchor="start" x="682.563" y="-649" font-family="Helvetica,sans-Serif" font-size="10.00" fill="#000000">(balance&#45;x uint)</text>
<text text-anchor="start" x="682.563" y="-637" font-family="Helvetica,sans-Serif" font-size="10.00" fill="#000000">(balance&#45;y uint)</text>
<text text-anchor="start" x="685.623" y="-625" font-family="Helvetica,sans-Serif" font-size="10.00" fill="#000000">(weight&#45;x uint)</text>
<text text-anchor="start" x="685.623" y="-613" font-family="Helvetica,sans-Serif" font-size="10.00" fill="#000000">(weight&#45;y uint)</text>
<text text-anchor="start" x="693.4015" y="-601" font-family="Helvetica,sans-Serif" font-size="10.00" fill="#000000">(price uint)</text>
<text text-anchor="start" x="685.337" y="-589" font-family="Helvetica,sans-Serif" font-size="10.00" fill="#000000">(response uint</text>
<text text-anchor="start" x="705.624" y="-577" font-family="Helvetica,sans-Serif" font-size="10.00" fill="#000000">uint))</text>
<text text-anchor="start" x="351.0065" y="-553" font-family="Helvetica,sans-Serif" font-size="10.00" fill="#000000">+(get&#45;token&#45;given&#45;position (balance&#45;x uint) (balance&#45;y uint) (weight&#45;x uint) (weight&#45;y uint) (total&#45;supply uint) (x uint) (y uint) (response (tuple (token uint) (dy uint)) uint))</text>
<text text-anchor="start" x="366.2885" y="-541" font-family="Helvetica,sans-Serif" font-size="10.00" fill="#000000"> +(get&#45;position&#45;given&#45;mint (balance&#45;x uint) (balance&#45;y uint) (weight&#45;x uint) (weight&#45;y uint) (total&#45;supply uint) (token uint) (response (tuple (dx uint) (dy uint)) uint))</text>
<text text-anchor="start" x="365.7285" y="-529" font-family="Helvetica,sans-Serif" font-size="10.00" fill="#000000"> +(get&#45;position&#45;given&#45;burn (balance&#45;x uint) (balance&#45;y uint) (weight&#45;x uint) (weight&#45;y uint) (total&#45;supply uint) (token uint) (response (tuple (dx uint) (dy uint)) uint))</text>
</g>
<!-- A10 -->
<g id="node11" class="node">
<title>A10</title>
<polygon fill="none" stroke="#000000" points="1086.7044,-326 977.3176,-326 977.3176,-290 1086.7044,-290 1086.7044,-326"/>
<text text-anchor="middle" x="1032.011" y="-305" font-family="Helvetica,sans-Serif" font-size="10.00" fill="#000000">weighted&#45;equation</text>
</g>
<!-- A2&#45;&gt;A10 -->
<g id="edge1" class="edge">
<title>A2&#45;&gt;A10</title>
<path fill="none" stroke="#000000" stroke-dasharray="5,2" d="M938.0311,-507.8297C949.0834,-494.1528 959.5163,-480.1662 969.011,-466 999.7562,-420.1279 1019.2004,-356.9657 1027.4485,-326.2498"/>
<polygon fill="none" stroke="#000000" points="935.0915,-505.8946 931.4545,-515.8457 940.5032,-510.3346 935.0915,-505.8946"/>
</g>
<!-- A12 -->
<g id="node13" class="node">
<title>A12</title>
<polygon fill="none" stroke="#000000" points="118.033,-326 -.011,-326 -.011,-290 118.033,-290 118.033,-326"/>
<text text-anchor="middle" x="59.011" y="-305" font-family="Helvetica,sans-Serif" font-size="10.00" fill="#000000">yield&#45;token&#45;equation</text>
</g>
<!-- A2&#45;&gt;A12 -->
<g id="edge2" class="edge">
<title>A2&#45;&gt;A12</title>
<path fill="none" stroke="#000000" stroke-dasharray="5,2" d="M331.4938,-516.0398C240.969,-486.3177 196.2523,-524.5351 127.011,-466 83.3378,-429.0797 66.9528,-358.9829 61.4686,-326.0044"/>
<polygon fill="none" stroke="#000000" points="330.3907,-519.3617 340.9855,-519.3491 332.6952,-512.7519 330.3907,-519.3617"/>
</g>
<!-- A14 -->
<g id="node15" class="node">
<title>A14</title>
<polygon fill="#f5deb3" stroke="#000000" points="1246.518,-732 1149.504,-732 1149.504,-688 1252.518,-688 1252.518,-726 1246.518,-732"/>
<polyline fill="none" stroke="#000000" points="1246.518,-732 1246.518,-726 "/>
<polyline fill="none" stroke="#000000" points="1252.518,-726 1246.518,-726 "/>
<text text-anchor="middle" x="1201.011" y="-719" font-family="Helvetica,sans-Serif" font-size="10.00" fill="#000000">Interface</text>
<text text-anchor="middle" x="1201.011" y="-707" font-family="Helvetica,sans-Serif" font-size="10.00" fill="#000000">abstracting AMM</text>
<text text-anchor="middle" x="1201.011" y="-695" font-family="Helvetica,sans-Serif" font-size="10.00" fill="#000000">equation logic</text>
</g>
<!-- A2&#45;&gt;A14 -->
<g id="edge24" class="edge">
<title>A2&#45;&gt;A14</title>
<path fill="none" stroke="#000000" stroke-dasharray="5,2" d="M1093.2454,-710C1111.9079,-710 1130.5704,-710 1149.233,-710"/>
</g>
<!-- A3 -->
<g id="node4" class="node">
<title>A3</title>
<polygon fill="none" stroke="#000000" points="218.011,-1298 218.011,-1330 322.011,-1330 322.011,-1298 218.011,-1298"/>
<text text-anchor="start" x="243.622" y="-1311" font-family="Helvetica,sans-Serif" font-size="10.00" fill="#000000">trait&#45;sip&#45;010</text>
<polygon fill="none" stroke="#000000" points="218.011,-954 218.011,-1298 322.011,-1298 322.011,-954 218.011,-954"/>
<text text-anchor="start" x="237.6435" y="-1279" font-family="Helvetica,sans-Serif" font-size="10.00" fill="#000000"> +(transfer uint</text>
<text text-anchor="start" x="231.3995" y="-1267" font-family="Helvetica,sans-Serif" font-size="10.00" fill="#000000">principal principal</text>
<text text-anchor="start" x="236.947" y="-1255" font-family="Helvetica,sans-Serif" font-size="10.00" fill="#000000">(response bool</text>
<text text-anchor="start" x="258.624" y="-1243" font-family="Helvetica,sans-Serif" font-size="10.00" fill="#000000">uint))</text>
<text text-anchor="start" x="242.9215" y="-1231" font-family="Helvetica,sans-Serif" font-size="10.00" fill="#000000"> +(get&#45;name</text>
<text text-anchor="start" x="243.066" y="-1219" font-family="Helvetica,sans-Serif" font-size="10.00" fill="#000000">() (response</text>
<text text-anchor="start" x="233.349" y="-1207" font-family="Helvetica,sans-Serif" font-size="10.00" fill="#000000">string&#45;ascii uint))</text>
<text text-anchor="start" x="236.5375" y="-1183" font-family="Helvetica,sans-Serif" font-size="10.00" fill="#000000">+ get&#45;symbol ()</text>
<text text-anchor="start" x="247.7845" y="-1171" font-family="Helvetica,sans-Serif" font-size="10.00" fill="#000000">(response</text>
<text text-anchor="start" x="233.349" y="-1159" font-family="Helvetica,sans-Serif" font-size="10.00" fill="#000000">string&#45;ascii uint))</text>
<text text-anchor="start" x="232.3735" y="-1135" font-family="Helvetica,sans-Serif" font-size="10.00" fill="#000000">+(get&#45;decimals ()</text>
<text text-anchor="start" x="238.337" y="-1123" font-family="Helvetica,sans-Serif" font-size="10.00" fill="#000000">(response uint</text>
<text text-anchor="start" x="258.624" y="-1111" font-family="Helvetica,sans-Serif" font-size="10.00" fill="#000000">uint))</text>
<text text-anchor="start" x="233.4735" y="-1087" font-family="Helvetica,sans-Serif" font-size="10.00" fill="#000000">+(get&#45;balance&#45;of</text>
<text text-anchor="start" x="227.784" y="-1075" font-family="Helvetica,sans-Serif" font-size="10.00" fill="#000000">principal (response</text>
<text text-anchor="start" x="249.1765" y="-1063" font-family="Helvetica,sans-Serif" font-size="10.00" fill="#000000">uint uint))</text>
<text text-anchor="start" x="231.254" y="-1039" font-family="Helvetica,sans-Serif" font-size="10.00" fill="#000000">+(get&#45;total&#45;supply</text>
<text text-anchor="start" x="233.6185" y="-1027" font-family="Helvetica,sans-Serif" font-size="10.00" fill="#000000">() (response uint</text>
<text text-anchor="start" x="258.624" y="-1015" font-family="Helvetica,sans-Serif" font-size="10.00" fill="#000000">uint))</text>
<text text-anchor="start" x="232.6495" y="-991" font-family="Helvetica,sans-Serif" font-size="10.00" fill="#000000">+(get&#45;token&#45;uri ()</text>
<text text-anchor="start" x="247.7845" y="-979" font-family="Helvetica,sans-Serif" font-size="10.00" fill="#000000">(response</text>
<text text-anchor="start" x="235.0095" y="-967" font-family="Helvetica,sans-Serif" font-size="10.00" fill="#000000">string&#45;utf8 uint))</text>
</g>
<!-- A3&#45;&gt;A0 -->
<g id="edge13" class="edge">
<title>A3&#45;&gt;A0</title>
<path fill="none" stroke="#000000" d="M332.2004,-1133.8456C508.8693,-1109.2821 1007.1159,-1029.8468 1102.011,-904 1127.9669,-869.5782 1130.926,-547.9764 1102.011,-516 1027.7093,-433.8316 707.4683,-510.4838 606.011,-466 603.0781,-464.7141 600.1597,-463.3612 597.2576,-461.9467"/>
<polygon fill="#000000" stroke="#000000" points="322.031,-1135.2481 331.3224,-1129.424 326.9841,-1134.565 331.9372,-1133.8818 331.9372,-1133.8818 331.9372,-1133.8818 326.9841,-1134.565 332.5521,-1138.3396 322.031,-1135.2481 322.031,-1135.2481"/>
</g>
<!-- A4 -->
<g id="node5" class="node">
<title>A4</title>
<polygon fill="none" stroke="#000000" points="137.011,-344 137.011,-376 242.011,-376 242.011,-344 137.011,-344"/>
<text text-anchor="start" x="156.1735" y="-357" font-family="Helvetica,sans-Serif" font-size="10.00" fill="#000000">trait&#45;pool&#45;token</text>
<polygon fill="none" stroke="#000000" points="137.011,-240 137.011,-344 242.011,-344 242.011,-240 137.011,-240"/>
<text text-anchor="start" x="154.094" y="-325" font-family="Helvetica,sans-Serif" font-size="10.00" fill="#000000"> +(mint principal</text>
<text text-anchor="start" x="146.9995" y="-313" font-family="Helvetica,sans-Serif" font-size="10.00" fill="#000000">uint (response bool</text>
<text text-anchor="start" x="178.124" y="-301" font-family="Helvetica,sans-Serif" font-size="10.00" fill="#000000">uint))</text>
<text text-anchor="start" x="173.5345" y="-289" font-family="Helvetica,sans-Serif" font-size="10.00" fill="#000000"> +(burn</text>
<text text-anchor="start" x="161.4525" y="-277" font-family="Helvetica,sans-Serif" font-size="10.00" fill="#000000">principal uint</text>
<text text-anchor="start" x="156.447" y="-265" font-family="Helvetica,sans-Serif" font-size="10.00" fill="#000000">(response bool</text>
<text text-anchor="start" x="178.124" y="-253" font-family="Helvetica,sans-Serif" font-size="10.00" fill="#000000">uint))</text>
</g>
<!-- A3&#45;&gt;A4 -->
<g id="edge11" class="edge">
<title>A3&#45;&gt;A4</title>
<path fill="none" stroke="#000000" stroke-dasharray="5,2" d="M215.9081,-949.0209C212.835,-933.8679 210.1377,-918.7334 208.011,-904 180.6496,-714.4437 182.9116,-487.6052 186.2709,-376.3613"/>
<polygon fill="none" stroke="#000000" points="212.5159,-949.8999 217.9795,-958.9773 219.3692,-948.474 212.5159,-949.8999"/>
</g>
<!-- A5 -->
<g id="node6" class="node">
<title>A5</title>
<polygon fill="none" stroke="#000000" points="217.011,-728 217.011,-760 323.011,-760 323.011,-728 217.011,-728"/>
<text text-anchor="start" x="226.9555" y="-741" font-family="Helvetica,sans-Serif" font-size="10.00" fill="#000000">trait&#45;flash&#45;loan&#45;user</text>
<polygon fill="none" stroke="#000000" points="217.011,-660 217.011,-728 323.011,-728 323.011,-660 217.011,-660"/>
<text text-anchor="start" x="234.588" y="-709" font-family="Helvetica,sans-Serif" font-size="10.00" fill="#000000">+(execute (list 3</text>
<text text-anchor="start" x="232.795" y="-697" font-family="Helvetica,sans-Serif" font-size="10.00" fill="#000000">trait&#45;sip&#45;010) (list</text>
<text text-anchor="start" x="232.5035" y="-685" font-family="Helvetica,sans-Serif" font-size="10.00" fill="#000000">3 uint) (response</text>
<text text-anchor="start" x="247.7865" y="-673" font-family="Helvetica,sans-Serif" font-size="10.00" fill="#000000">bool uint))</text>
</g>
<!-- A3&#45;&gt;A5 -->
<g id="edge12" class="edge">
<title>A3&#45;&gt;A5</title>
<path fill="none" stroke="#000000" d="M270.011,-943.3581C270.011,-875.575 270.011,-805.4974 270.011,-760.0572"/>
<polygon fill="#000000" stroke="#000000" points="270.011,-953.7752 265.5111,-943.7752 270.011,-948.7752 270.0111,-943.7752 270.0111,-943.7752 270.0111,-943.7752 270.011,-948.7752 274.5111,-943.7752 270.011,-953.7752 270.011,-953.7752"/>
</g>
<!-- A4&#45;&gt;A6 -->
<g id="edge14" class="edge">
<title>A4&#45;&gt;A6</title>
<path fill="none" stroke="#000000" d="M189.011,-229.6463C189.011,-187.5332 189.011,-136.8596 189.011,-100.0832"/>
<polygon fill="#000000" stroke="#000000" points="189.011,-239.8761 184.5111,-229.876 189.011,-234.8761 189.0111,-229.8761 189.0111,-229.8761 189.0111,-229.8761 189.011,-234.8761 193.5111,-229.8761 189.011,-239.8761 189.011,-239.8761"/>
</g>
<!-- A4&#45;&gt;A7 -->
<g id="edge16" class="edge">
<title>A4&#45;&gt;A7</title>
<path fill="none" stroke="#000000" d="M201.3594,-229.8317C210.0458,-200.3267 224.8354,-169.2652 250.011,-150 335.0038,-84.9607 623.9223,-120.2545 729.011,-100 770.3386,-92.0346 816.0338,-78.9203 850.5043,-68.1208"/>
<polygon fill="#000000" stroke="#000000" points="198.6414,-239.7587 196.942,-228.9253 199.9618,-234.9362 201.2823,-230.1137 201.2823,-230.1137 201.2823,-230.1137 199.9618,-234.9362 205.6225,-231.3021 198.6414,-239.7587 198.6414,-239.7587"/>
</g>
<!-- A4&#45;&gt;A8 -->
<g id="edge17" class="edge">
<title>A4&#45;&gt;A8</title>
<path fill="none" stroke="#000000" d="M205.8581,-229.902C215.0754,-201.9685 229.0525,-171.9924 250.011,-150 290.8588,-107.1371 353.3405,-81.4269 402.2622,-66.8321"/>
<polygon fill="#000000" stroke="#000000" points="202.7928,-239.6808 201.4901,-228.7925 204.2884,-234.9097 205.784,-230.1386 205.784,-230.1386 205.784,-230.1386 204.2884,-234.9097 210.078,-231.4847 202.7928,-239.6808 202.7928,-239.6808"/>
</g>
<!-- A4&#45;&gt;A9 -->
<g id="edge15" class="edge">
<title>A4&#45;&gt;A9</title>
<path fill="none" stroke="#000000" d="M202.1362,-229.8024C210.9322,-200.621 225.5939,-169.8012 250.011,-150 358.0653,-62.3727 425.9112,-140.4809 559.011,-100 585.3037,-92.0034 613.4618,-78.9598 634.5712,-68.2"/>
<polygon fill="#000000" stroke="#000000" points="199.3724,-239.6176 197.7513,-228.7722 200.7277,-234.8047 202.0829,-229.9919 202.0829,-229.9919 202.0829,-229.9919 200.7277,-234.8047 206.4145,-231.2116 199.3724,-239.6176 199.3724,-239.6176"/>
</g>
<!-- A16 -->
<g id="node17" class="node">
<title>A16</title>
<polygon fill="#f5deb3" stroke="#000000" points="715.3676,-326 614.6544,-326 614.6544,-290 721.3676,-290 721.3676,-320 715.3676,-326"/>
<polyline fill="none" stroke="#000000" points="715.3676,-326 715.3676,-320 "/>
<polyline fill="none" stroke="#000000" points="721.3676,-320 715.3676,-320 "/>
<text text-anchor="middle" x="668.011" y="-311" font-family="Helvetica,sans-Serif" font-size="10.00" fill="#000000">ayToken is a pool</text>
<text text-anchor="middle" x="668.011" y="-299" font-family="Helvetica,sans-Serif" font-size="10.00" fill="#000000">token</text>
</g>
<!-- A4&#45;&gt;A16 -->
<g id="edge26" class="edge">
<title>A4&#45;&gt;A16</title>
<path fill="none" stroke="#000000" stroke-dasharray="5,2" d="M196.1504,-376.3797C204.3037,-416.961 221.7418,-465.3532 259.011,-491 289.949,-512.2899 566.0224,-512.2163 597.011,-491 652.6872,-452.8814 664.7119,-364.2559 667.3027,-326.0541"/>
</g>
<!-- A5&#45;&gt;A0 -->
<g id="edge18" class="edge">
<title>A5&#45;&gt;A0</title>
<path fill="none" stroke="#000000" d="M287.127,-649.923C298.6511,-611.2608 314.836,-560.1672 332.011,-516 338.3533,-499.6902 345.3513,-482.8423 352.5924,-466.1232"/>
<polygon fill="#000000" stroke="#000000" points="284.1518,-659.9761 282.6747,-649.1102 285.5708,-655.1817 286.9897,-650.3872 286.9897,-650.3872 286.9897,-650.3872 285.5708,-655.1817 291.3047,-651.6643 284.1518,-659.9761 284.1518,-659.9761"/>
</g>
<!-- A10&#45;&gt;A7 -->
<g id="edge8" class="edge">
<title>A10&#45;&gt;A7</title>
<path fill="none" stroke="#000000" d="M1022.7966,-280.3768C1011.6833,-248.2809 991.6501,-194.0906 969.011,-150 953.6644,-120.1118 931.9144,-87.7433 918.1371,-68.17"/>
<polygon fill="#000000" stroke="#000000" points="1026.0834,-289.9804 1018.5877,-281.9763 1024.4644,-285.2498 1022.8453,-280.5192 1022.8453,-280.5192 1022.8453,-280.5192 1024.4644,-285.2498 1027.1029,-279.062 1026.0834,-289.9804 1026.0834,-289.9804"/>
</g>
<!-- A10&#45;&gt;A8 -->
<g id="edge9" class="edge">
<title>A10&#45;&gt;A8</title>
<path fill="none" stroke="#000000" d="M1029.2129,-279.5034C1024.0327,-243.2864 1009.4672,-181.679 969.011,-150 841.1345,-49.8668 764.3406,-140.3293 607.011,-100 575.7663,-91.9908 541.7715,-78.8781 516.2435,-68.0902"/>
<polygon fill="#000000" stroke="#000000" points="1030.5375,-289.8668 1024.8059,-280.5181 1029.9035,-284.9071 1029.2695,-279.9475 1029.2695,-279.9475 1029.2695,-279.9475 1029.9035,-284.9071 1033.7332,-279.3769 1030.5375,-289.8668 1030.5375,-289.8668"/>
</g>
<!-- A10&#45;&gt;A9 -->
<g id="edge7" class="edge">
<title>A10&#45;&gt;A9</title>
<path fill="none" stroke="#000000" d="M1028.12,-279.7778C1021.8181,-244.6346 1006.1025,-184.977 969.011,-150 966.6542,-147.7776 805.0002,-94.7495 719.6024,-66.8375"/>
<polygon fill="#000000" stroke="#000000" points="1029.7868,-289.8427 1023.7134,-280.7123 1028.9699,-284.9099 1028.1529,-279.9771 1028.1529,-279.9771 1028.1529,-279.9771 1028.9699,-284.9099 1032.5925,-279.2419 1029.7868,-289.8427 1029.7868,-289.8427"/>
</g>
<!-- A11 -->
<g id="node12" class="node">
<title>A11</title>
<polygon fill="none" stroke="#000000" points="1247.011,-338 1247.011,-370 1351.011,-370 1351.011,-338 1247.011,-338"/>
<text text-anchor="start" x="1275.4015" y="-351" font-family="Helvetica,sans-Serif" font-size="10.00" fill="#000000">trait&#45;oracle</text>
<polygon fill="none" stroke="#000000" points="1247.011,-246 1247.011,-338 1351.011,-338 1351.011,-246 1247.011,-246"/>
<text text-anchor="start" x="1256.924" y="-319" font-family="Helvetica,sans-Serif" font-size="10.00" fill="#000000">+(get&#45;price (source</text>
<text text-anchor="start" x="1273.461" y="-307" font-family="Helvetica,sans-Serif" font-size="10.00" fill="#000000">string&#45;ascii)</text>
<text text-anchor="start" x="1281.5135" y="-295" font-family="Helvetica,sans-Serif" font-size="10.00" fill="#000000">(symbol</text>
<text text-anchor="start" x="1273.461" y="-283" font-family="Helvetica,sans-Serif" font-size="10.00" fill="#000000">string&#45;ascii)</text>
<text text-anchor="start" x="1267.337" y="-271" font-family="Helvetica,sans-Serif" font-size="10.00" fill="#000000">(response uint</text>
<text text-anchor="start" x="1287.624" y="-259" font-family="Helvetica,sans-Serif" font-size="10.00" fill="#000000">uint))</text>
</g>
<!-- A11&#45;&gt;A7 -->
<g id="edge10" class="edge">
<title>A11&#45;&gt;A7</title>
<path fill="none" stroke="#000000" d="M1285.9455,-236.1436C1277.0773,-205.8842 1262.3446,-172.535 1238.011,-150 1200.089,-114.881 1063.889,-81.9986 977.8659,-64.0758"/>
<polygon fill="#000000" stroke="#000000" points="1288.6235,-245.8418 1281.624,-237.4004 1287.2926,-241.0222 1285.9617,-236.2026 1285.9617,-236.2026 1285.9617,-236.2026 1287.2926,-241.0222 1290.2994,-235.0048 1288.6235,-245.8418 1288.6235,-245.8418"/>
</g>
<!-- A12&#45;&gt;A6 -->
<g id="edge6" class="edge">
<title>A12&#45;&gt;A6</title>
<path fill="none" stroke="#000000" d="M69.6059,-279.9837C82.0564,-247.9408 103.9593,-194.2018 127.011,-150 135.701,-133.3368 146.1524,-115.7353 155.9768,-100.0219"/>
<polygon fill="#000000" stroke="#000000" points="65.9062,-289.5853 65.3027,-278.636 67.704,-284.9196 69.5018,-280.254 69.5018,-280.254 69.5018,-280.254 67.704,-284.9196 73.7009,-281.872 65.9062,-289.5853 65.9062,-289.5853"/>
</g>
</g>
</svg>
